# xmcd CD database file
#
# Track frame offsets:
#	150
#	14515
#	28470
#	40415
#	50702
#	65985
#	78147
#	86410
#	104605
#	117862
#	130997
#	148585
#	157505
#	172757
#	183507
#	198950
#	225447
#	242930
#	257622
#	268627
#	282117
#	298252
#	313270
#	326877
#	338845
#
# Disc length: 4681 seconds
#
# Revision: 3
# Processed by: cddbd v1.4PL0 Copyright (c) Steve Scherf et al.
# Submitted via: CDex 1.40PlusFr
#
DISCID=74124719
DTITLE=Various Artist - Mega ambiance
DYEAR=1900
DGENRE=Blues
TTITLE0=LA queuleuleu
TTITLE1=Joilie poupée
TTITLE2=Si tu vas à Rio
TTITLE3=Ah le petit vin blanc
TTITLE4=Que reste-t-il de nous amours
TTITLE5=Bebop a lula
TTITLE6=great balls of fire
TTITLE7=Alice ça glisse
TTITLE8=Chante
TTITLE9=Doucement là
TTITLE10=La chenille
TTITLE11=La plus bath des javas
TTITLE12=J'ai encore révé d'elle
TTITLE13=Brigitte Bardot
TTITLE14=La carioca
TTITLE15=I'm a wonderful hing
TTITLE16=Aquele abraco
TTITLE17=Amos dourades
TTITLE18=El que sambra su maiz
TTITLE19=havana
TTITLE20=meneale
TTITLE21=ambalaba
TTITLE22=Uno
TTITLE23=Tu verras Montmartre
TTITLE24=Le plus beau des tango
EXTD=ID3G: 0
EXTT0=
EXTT1=
EXTT2=
EXTT3=
EXTT4=
EXTT5=
EXTT6=
EXTT7=
EXTT8=
EXTT9=
EXTT10=
EXTT11=
EXTT12=
EXTT13=
EXTT14=
EXTT15=
EXTT16=
EXTT17=
EXTT18=
EXTT19=
EXTT20=
EXTT21=
EXTT22=
EXTT23=
EXTT24=
PLAYORDER=
